<svg xmlns="http://www.w3.org/2000/svg" width="13pt" height="14pt" viewBox="0 0 13 14">
<g>
<path d="M 7.472656 12.171875 L 6.828125 12.777344 C 6.554688 13.035156 6.113281 13.035156 5.84375 12.777344 L 0.203125 7.464844 C -0.0703125 7.207031 -0.0703125 6.792969 0.203125 6.539062 L 5.84375 1.222656 C 6.117188 0.964844 6.558594 0.964844 6.828125 1.222656 L 7.472656 1.828125 C 7.746094 2.089844 7.742188 2.511719 7.460938 2.765625 L 3.964844 5.90625 L 12.304688 5.90625 C 12.691406 5.90625 13 6.199219 13 6.5625 L 13 7.4375 C 13 7.800781 12.691406 8.09375 12.304688 8.09375 L 3.964844 8.09375 L 7.460938 11.234375 C 7.746094 11.488281 7.75 11.910156 7.472656 12.171875 Z M 7.472656 12.171875 "/>
</g>
</svg>
