<svg display="none" xmlns="http://www.w3.org/2000/svg">

 <symbol id="cod" width="19pt" height="25pt" viewBox="0 0 19 25">
<path d="M 7.417969 17.046875 L 7.40625 17.035156 L 5.785156 15.625 L 7.40625 14.214844 C 7.585938 14.058594 7.605469 13.785156 7.445312 13.609375 L 7.4375 13.597656 L 6.574219 12.691406 C 6.40625 12.515625 6.128906 12.511719 5.960938 12.671875 L 3.105469 15.3125 C 2.925781 15.484375 2.925781 15.773438 3.105469 15.9375 L 5.960938 18.578125 C 6.042969 18.652344 6.148438 18.695312 6.257812 18.695312 C 6.378906 18.695312 6.496094 18.648438 6.574219 18.558594 L 7.4375 17.652344 C 7.601562 17.480469 7.589844 17.207031 7.417969 17.046875 Z M 18.300781 4.78125 L 14.152344 0.683594 C 13.707031 0.242188 13.101562 -0.00390625 12.472656 -0.00390625 L 2.375 -0.00390625 C 1.0625 0 0 1.050781 0 2.34375 L 0 22.65625 C 0 23.949219 1.0625 25 2.375 25 L 16.625 25 C 17.9375 25 19 23.949219 19 22.65625 L 19 6.441406 C 19 5.820312 18.746094 5.21875 18.300781 4.78125 Z M 12.667969 2.535156 L 16.433594 6.25 L 12.667969 6.25 Z M 16.625 22.65625 L 2.375 22.65625 L 2.375 2.34375 L 10.292969 2.34375 L 10.292969 7.421875 C 10.292969 8.070312 10.820312 8.59375 11.480469 8.59375 L 16.625 8.59375 Z M 10.371094 10.449219 C 10.136719 10.382812 9.902344 10.511719 9.832031 10.742188 L 7.125 19.925781 C 7.054688 20.15625 7.1875 20.394531 7.421875 20.460938 L 8.628906 20.804688 C 8.863281 20.875 9.105469 20.738281 9.167969 20.511719 L 11.875 11.324219 C 11.945312 11.09375 11.8125 10.855469 11.578125 10.789062 Z M 11.582031 14.203125 L 11.59375 14.214844 L 13.214844 15.625 L 11.59375 17.035156 C 11.414062 17.191406 11.394531 17.464844 11.554688 17.640625 L 11.5625 17.652344 L 12.425781 18.558594 C 12.585938 18.730469 12.863281 18.738281 13.039062 18.578125 L 15.894531 15.9375 C 16.074219 15.765625 16.074219 15.476562 15.894531 15.3125 L 13.039062 12.671875 C 12.863281 12.507812 12.585938 12.515625 12.425781 12.691406 L 11.5625 13.597656 C 11.398438 13.769531 11.410156 14.042969 11.582031 14.203125 Z M 11.582031 14.203125 "/>
 </symbol>

  <symbol id="brands" width="25pt" height="25pt" viewBox="0 0 25 25">
<path d="M 7.488281 23.4375 L 18.902344 23.4375 L 24.539062 13.464844 L 9.972656 16.269531 Z M 24.644531 11.722656 L 18.902344 1.5625 L 7.601562 1.5625 L 17.589844 13.082031 Z M 6.074219 2.382812 L 0.355469 12.5 L 6.015625 22.515625 L 11.015625 8.085938 Z M 6.074219 2.382812 "/>
 </symbol>

 <symbol id="pencil"  width="25pt" height="25pt" viewBox="0 0 25 25">
<path d="M 5.34375 11.914062 L 11.917969 5.34375 L 9.761719 3.191406 L 6.75 6.203125 C 6.675781 6.277344 6.578125 6.316406 6.476562 6.316406 C 6.375 6.316406 6.273438 6.277344 6.203125 6.203125 L 5.65625 5.65625 C 5.503906 5.503906 5.503906 5.257812 5.65625 5.109375 L 8.667969 2.097656 L 7.023438 0.453125 C 6.417969 -0.152344 5.4375 -0.152344 4.835938 0.453125 L 0.453125 4.835938 C -0.152344 5.4375 -0.152344 6.417969 0.453125 7.023438 L 5.34375 11.917969 Z M 24.3125 6.210938 C 25.230469 5.296875 25.226562 3.8125 24.3125 2.894531 L 22.101562 0.6875 C 21.1875 -0.230469 19.703125 -0.230469 18.785156 0.6875 L 16.539062 2.933594 L 22.066406 8.460938 Z M 15.433594 4.039062 L 0.929688 18.539062 L 0.015625 23.785156 C -0.109375 24.492188 0.507812 25.109375 1.214844 24.984375 L 6.464844 24.0625 L 20.960938 9.566406 Z M 24.546875 17.976562 L 22.902344 16.332031 L 19.890625 19.34375 C 19.742188 19.496094 19.496094 19.496094 19.34375 19.34375 L 18.796875 18.796875 C 18.648438 18.644531 18.648438 18.402344 18.796875 18.25 L 21.808594 15.238281 L 19.652344 13.082031 L 13.082031 19.652344 L 17.976562 24.546875 C 18.582031 25.152344 19.5625 25.152344 20.164062 24.546875 L 24.546875 20.164062 C 25.152344 19.5625 25.152344 18.582031 24.546875 17.976562 Z M 24.546875 17.976562 "/>
</symbol>

 <symbol id="quote"  width="25pt" height="25pt" viewBox="0 0 25 25">
	<path d="M 6.289062 1.230469 C 3.535156 -0.0195312 -0.613281 2.339844 0.078125 5.628906 C 0.464844 7.472656 2.152344 8.808594 3.953125 9.140625 C 5.515625 9.425781 6.949219 8.742188 8 7.664062 C 7.785156 9.207031 7.140625 10.75 6.511719 12.023438 C 5.457031 14.152344 3.949219 16.421875 1.9375 17.761719 C 1.1875 18.265625 1.890625 19.484375 2.648438 18.980469 C 7.066406 16.027344 13.582031 4.539062 6.289062 1.230469 Z M 7.738281 5.695312 C 6.851562 7.226562 5.382812 8.125 3.609375 7.613281 C 2.09375 7.171875 0.976562 5.511719 1.671875 4.015625 C 2.992188 1.183594 6.789062 2.195312 7.75 4.707031 C 7.769531 5.023438 7.773438 5.335938 7.773438 5.648438 C 7.761719 5.664062 7.75 5.679688 7.738281 5.695312 Z M 7.738281 5.695312 "/>
   <path d="M 16.707031 1.230469 C 13.953125 -0.0195312 9.804688 2.339844 10.492188 5.628906 C 10.882812 7.472656 12.570312 8.808594 14.371094 9.140625 C 15.933594 9.425781 17.367188 8.742188 18.417969 7.664062 C 18.199219 9.207031 17.558594 10.75 16.929688 12.023438 C 15.875 14.152344 14.367188 16.421875 12.355469 17.761719 C 11.605469 18.265625 12.308594 19.484375 13.066406 18.980469 C 17.484375 16.027344 24 4.539062 16.707031 1.230469 Z M 18.15625 5.695312 C 17.269531 7.226562 15.800781 8.125 14.027344 7.613281 C 12.511719 7.171875 11.394531 5.511719 12.089844 4.015625 C 13.351562 1.308594 16.875 2.117188 18.023438 4.386719 C 18.132812 4.804688 18.167969 5.230469 18.175781 5.675781 C 18.167969 5.683594 18.164062 5.6875 18.15625 5.695312 Z M 18.15625 5.695312 "/>
 </symbol>

</svg>