<svg display="none" xmlns="http://www.w3.org/2000/svg">

 <symbol id="cod" width="19pt" height="25pt" viewBox="0 0 19 25">
<path d="M 7.417969 17.046875 L 7.40625 17.035156 L 5.785156 15.625 L 7.40625 14.214844 C 7.585938 14.058594 7.605469 13.785156 7.445312 13.609375 L 7.4375 13.597656 L 6.574219 12.691406 C 6.40625 12.515625 6.128906 12.511719 5.960938 12.671875 L 3.105469 15.3125 C 2.925781 15.484375 2.925781 15.773438 3.105469 15.9375 L 5.960938 18.578125 C 6.042969 18.652344 6.148438 18.695312 6.257812 18.695312 C 6.378906 18.695312 6.496094 18.648438 6.574219 18.558594 L 7.4375 17.652344 C 7.601562 17.480469 7.589844 17.207031 7.417969 17.046875 Z M 18.300781 4.78125 L 14.152344 0.683594 C 13.707031 0.242188 13.101562 -0.00390625 12.472656 -0.00390625 L 2.375 -0.00390625 C 1.0625 0 0 1.050781 0 2.34375 L 0 22.65625 C 0 23.949219 1.0625 25 2.375 25 L 16.625 25 C 17.9375 25 19 23.949219 19 22.65625 L 19 6.441406 C 19 5.820312 18.746094 5.21875 18.300781 4.78125 Z M 12.667969 2.535156 L 16.433594 6.25 L 12.667969 6.25 Z M 16.625 22.65625 L 2.375 22.65625 L 2.375 2.34375 L 10.292969 2.34375 L 10.292969 7.421875 C 10.292969 8.070312 10.820312 8.59375 11.480469 8.59375 L 16.625 8.59375 Z M 10.371094 10.449219 C 10.136719 10.382812 9.902344 10.511719 9.832031 10.742188 L 7.125 19.925781 C 7.054688 20.15625 7.1875 20.394531 7.421875 20.460938 L 8.628906 20.804688 C 8.863281 20.875 9.105469 20.738281 9.167969 20.511719 L 11.875 11.324219 C 11.945312 11.09375 11.8125 10.855469 11.578125 10.789062 Z M 11.582031 14.203125 L 11.59375 14.214844 L 13.214844 15.625 L 11.59375 17.035156 C 11.414062 17.191406 11.394531 17.464844 11.554688 17.640625 L 11.5625 17.652344 L 12.425781 18.558594 C 12.585938 18.730469 12.863281 18.738281 13.039062 18.578125 L 15.894531 15.9375 C 16.074219 15.765625 16.074219 15.476562 15.894531 15.3125 L 13.039062 12.671875 C 12.863281 12.507812 12.585938 12.515625 12.425781 12.691406 L 11.5625 13.597656 C 11.398438 13.769531 11.410156 14.042969 11.582031 14.203125 Z M 11.582031 14.203125 "/>
 </symbol>

  <symbol id="brands" width="25pt" height="25pt" viewBox="0 0 25 25">
<path d="M 7.488281 23.4375 L 18.902344 23.4375 L 24.539062 13.464844 L 9.972656 16.269531 Z M 24.644531 11.722656 L 18.902344 1.5625 L 7.601562 1.5625 L 17.589844 13.082031 Z M 6.074219 2.382812 L 0.355469 12.5 L 6.015625 22.515625 L 11.015625 8.085938 Z M 6.074219 2.382812 "/>
 </symbol>

 <symbol id="pencil"  width="25pt" height="25pt" viewBox="0 0 25 25">
<path d="M 5.34375 11.914062 L 11.917969 5.34375 L 9.761719 3.191406 L 6.75 6.203125 C 6.675781 6.277344 6.578125 6.316406 6.476562 6.316406 C 6.375 6.316406 6.273438 6.277344 6.203125 6.203125 L 5.65625 5.65625 C 5.503906 5.503906 5.503906 5.257812 5.65625 5.109375 L 8.667969 2.097656 L 7.023438 0.453125 C 6.417969 -0.152344 5.4375 -0.152344 4.835938 0.453125 L 0.453125 4.835938 C -0.152344 5.4375 -0.152344 6.417969 0.453125 7.023438 L 5.34375 11.917969 Z M 24.3125 6.210938 C 25.230469 5.296875 25.226562 3.8125 24.3125 2.894531 L 22.101562 0.6875 C 21.1875 -0.230469 19.703125 -0.230469 18.785156 0.6875 L 16.539062 2.933594 L 22.066406 8.460938 Z M 15.433594 4.039062 L 0.929688 18.539062 L 0.015625 23.785156 C -0.109375 24.492188 0.507812 25.109375 1.214844 24.984375 L 6.464844 24.0625 L 20.960938 9.566406 Z M 24.546875 17.976562 L 22.902344 16.332031 L 19.890625 19.34375 C 19.742188 19.496094 19.496094 19.496094 19.34375 19.34375 L 18.796875 18.796875 C 18.648438 18.644531 18.648438 18.402344 18.796875 18.25 L 21.808594 15.238281 L 19.652344 13.082031 L 13.082031 19.652344 L 17.976562 24.546875 C 18.582031 25.152344 19.5625 25.152344 20.164062 24.546875 L 24.546875 20.164062 C 25.152344 19.5625 25.152344 18.582031 24.546875 17.976562 Z M 24.546875 17.976562 "/>
</symbol>

 <symbol id="quote"  width="25pt" height="25pt" viewBox="0 0 25 25">
	<path d="M 6.289062 1.230469 C 3.535156 -0.0195312 -0.613281 2.339844 0.078125 5.628906 C 0.464844 7.472656 2.152344 8.808594 3.953125 9.140625 C 5.515625 9.425781 6.949219 8.742188 8 7.664062 C 7.785156 9.207031 7.140625 10.75 6.511719 12.023438 C 5.457031 14.152344 3.949219 16.421875 1.9375 17.761719 C 1.1875 18.265625 1.890625 19.484375 2.648438 18.980469 C 7.066406 16.027344 13.582031 4.539062 6.289062 1.230469 Z M 7.738281 5.695312 C 6.851562 7.226562 5.382812 8.125 3.609375 7.613281 C 2.09375 7.171875 0.976562 5.511719 1.671875 4.015625 C 2.992188 1.183594 6.789062 2.195312 7.75 4.707031 C 7.769531 5.023438 7.773438 5.335938 7.773438 5.648438 C 7.761719 5.664062 7.75 5.679688 7.738281 5.695312 Z M 7.738281 5.695312 "/>
   <path d="M 16.707031 1.230469 C 13.953125 -0.0195312 9.804688 2.339844 10.492188 5.628906 C 10.882812 7.472656 12.570312 8.808594 14.371094 9.140625 C 15.933594 9.425781 17.367188 8.742188 18.417969 7.664062 C 18.199219 9.207031 17.558594 10.75 16.929688 12.023438 C 15.875 14.152344 14.367188 16.421875 12.355469 17.761719 C 11.605469 18.265625 12.308594 19.484375 13.066406 18.980469 C 17.484375 16.027344 24 4.539062 16.707031 1.230469 Z M 18.15625 5.695312 C 17.269531 7.226562 15.800781 8.125 14.027344 7.613281 C 12.511719 7.171875 11.394531 5.511719 12.089844 4.015625 C 13.351562 1.308594 16.875 2.117188 18.023438 4.386719 C 18.132812 4.804688 18.167969 5.230469 18.175781 5.675781 C 18.167969 5.683594 18.164062 5.6875 18.15625 5.695312 Z M 18.15625 5.695312 "/>
 </symbol>

<symbol id="mail" width="30pt" height="30pt" viewBox="0 0 30 30">
<path d="M 27.1875 3.75 L 2.8125 3.75 C 1.257812 3.75 0 5.007812 0 6.5625 L 0 23.4375 C 0 24.992188 1.257812 26.25 2.8125 26.25 L 27.1875 26.25 C 28.742188 26.25 30 24.992188 30 23.4375 L 30 6.5625 C 30 5.007812 28.742188 3.75 27.1875 3.75 Z M 27.1875 6.5625 L 27.1875 8.953125 C 25.875 10.023438 23.777344 11.6875 19.300781 15.191406 C 18.316406 15.96875 16.359375 17.835938 15 17.8125 C 13.640625 17.835938 11.683594 15.96875 10.699219 15.191406 C 6.222656 11.6875 4.125 10.023438 2.8125 8.953125 L 2.8125 6.5625 Z M 2.8125 23.4375 L 2.8125 12.5625 C 4.15625 13.632812 6.058594 15.132812 8.960938 17.40625 C 10.242188 18.414062 12.484375 20.636719 15 20.625 C 17.503906 20.636719 19.71875 18.445312 21.039062 17.40625 C 23.941406 15.132812 25.84375 13.632812 27.1875 12.5625 L 27.1875 23.4375 Z M 2.8125 23.4375 "/>
</symbol>

<symbol id="briefcase" width="30pt" height="30pt" viewBox="0 0 30 30">
<path d="M 18.75 19.6875 C 18.75 20.207031 18.332031 20.625 17.8125 20.625 L 12.1875 20.625 C 11.667969 20.625 11.25 20.207031 11.25 19.6875 L 11.25 16.875 L 0 16.875 L 0 25.3125 C 0 26.8125 1.3125 28.125 2.8125 28.125 L 27.1875 28.125 C 28.6875 28.125 30 26.8125 30 25.3125 L 30 16.875 L 18.75 16.875 Z M 27.1875 7.5 L 22.5 7.5 L 22.5 4.6875 C 22.5 3.1875 21.1875 1.875 19.6875 1.875 L 10.3125 1.875 C 8.8125 1.875 7.5 3.1875 7.5 4.6875 L 7.5 7.5 L 2.8125 7.5 C 1.3125 7.5 0 8.8125 0 10.3125 L 0 15 L 30 15 L 30 10.3125 C 30 8.8125 28.6875 7.5 27.1875 7.5 Z M 18.75 7.5 L 11.25 7.5 L 11.25 5.625 L 18.75 5.625 Z M 18.75 7.5 "/>
</symbol>

<symbol id="twitter" width="25pt" height="25pt" viewBox="0 0 25 25">
<path d="M 22.429688 7.40625 C 22.445312 7.628906 22.445312 7.851562 22.445312 8.074219 C 22.445312 14.847656 17.289062 22.652344 7.867188 22.652344 C 4.964844 22.652344 2.269531 21.8125 0 20.351562 C 0.414062 20.398438 0.808594 20.414062 1.238281 20.414062 C 3.632812 20.414062 5.835938 19.605469 7.597656 18.226562 C 5.347656 18.179688 3.457031 16.703125 2.808594 14.671875 C 3.125 14.722656 3.441406 14.753906 3.773438 14.753906 C 4.234375 14.753906 4.695312 14.6875 5.125 14.578125 C 2.777344 14.101562 1.015625 12.039062 1.015625 9.550781 L 1.015625 9.484375 C 1.695312 9.867188 2.492188 10.105469 3.332031 10.136719 C 1.949219 9.214844 1.046875 7.644531 1.046875 5.871094 C 1.046875 4.917969 1.300781 4.046875 1.746094 3.285156 C 4.265625 6.394531 8.058594 8.421875 12.308594 8.644531 C 12.230469 8.265625 12.183594 7.867188 12.183594 7.472656 C 12.183594 4.648438 14.46875 2.347656 17.304688 2.347656 C 18.78125 2.347656 20.113281 2.964844 21.050781 3.964844 C 22.207031 3.742188 23.320312 3.316406 24.300781 2.726562 C 23.921875 3.917969 23.113281 4.917969 22.050781 5.550781 C 23.082031 5.441406 24.078125 5.15625 25 4.757812 C 24.300781 5.773438 23.429688 6.679688 22.429688 7.40625 Z M 22.429688 7.40625 "/>
</symbol>

<symbol id="pinterest" width="19pt" height="25pt" viewBox="0 0 19 25">
<path d="M 10.09375 0.316406 C 5.015625 0.316406 0 3.65625 0 9.0625 C 0 12.5 1.960938 14.453125 3.148438 14.453125 C 3.636719 14.453125 3.917969 13.105469 3.917969 12.726562 C 3.917969 12.269531 2.746094 11.304688 2.746094 9.414062 C 2.746094 5.488281 5.773438 2.707031 9.691406 2.707031 C 13.0625 2.707031 15.554688 4.59375 15.554688 8.066406 C 15.554688 10.660156 14.503906 15.523438 11.089844 15.523438 C 9.855469 15.523438 8.800781 14.644531 8.800781 13.382812 C 8.800781 11.539062 10.109375 9.75 10.109375 7.847656 C 10.109375 4.613281 5.460938 5.199219 5.460938 9.105469 C 5.460938 9.925781 5.566406 10.835938 5.9375 11.582031 C 5.253906 14.480469 3.859375 18.804688 3.859375 21.792969 C 3.859375 22.714844 3.992188 23.621094 4.082031 24.546875 C 4.25 24.730469 4.167969 24.710938 4.421875 24.617188 C 6.917969 21.25 6.828125 20.589844 7.957031 16.179688 C 8.566406 17.324219 10.136719 17.9375 11.386719 17.9375 C 16.640625 17.9375 19 12.886719 19 8.328125 C 19 3.480469 14.753906 0.316406 10.09375 0.316406 Z M 10.09375 0.316406 "/>
</symbol>

<symbol id="facebook" width="16pt" height="25pt" viewBox="0 0 16 25">
<path d="M 13.957031 14.0625 L 14.667969 9.539062 L 10.222656 9.539062 L 10.222656 6.601562 C 10.222656 5.363281 10.84375 4.15625 12.835938 4.15625 L 14.855469 4.15625 L 14.855469 0.304688 C 14.855469 0.304688 13.023438 0 11.269531 0 C 7.605469 0 5.214844 2.167969 5.214844 6.089844 L 5.214844 9.539062 L 1.144531 9.539062 L 1.144531 14.0625 L 5.214844 14.0625 L 5.214844 25 L 10.222656 25 L 10.222656 14.0625 Z M 13.957031 14.0625 "/>
</symbol>

</svg>